<svg width="224" height="235" viewBox="0 0 224 235" fill="none" xmlns="http://www.w3.org/2000/svg">
<g filter="url(#filter0_ddd_1246_764)">
<circle cx="108" cy="112" r="81" fill="white"/>
<circle cx="108" cy="112" r="80" stroke="#15316A" stroke-width="2"/>
</g>
<path d="M82.2854 148.641C81.001 148.641 79.7165 148.275 78.799 147.359C77.5146 146.443 76.5971 144.977 76.4136 143.328C76.2301 141.679 76.5971 140.213 77.6981 138.931C77.6981 138.931 77.6981 138.931 77.6981 138.748L87.2398 128.122C87.2398 128.122 87.2398 127.939 87.4233 127.939L89.0747 117.862C89.2582 116.946 90.1757 116.213 91.0932 116.397C92.0107 116.58 92.7447 117.496 92.5612 118.412L90.9097 128.488C90.7262 129.221 90.3592 129.954 89.9922 130.504L80.4505 141.13C80.0835 141.679 79.9 142.229 80.0835 142.778C80.0835 143.328 80.4505 143.878 81.0009 144.244C81.5514 144.61 82.1019 144.794 82.6524 144.61C83.2029 144.61 83.7534 144.244 84.1204 143.694L94.2126 131.42C95.1301 130.32 95.4971 129.221 95.6806 127.939L96.598 120.794C96.7815 119.878 97.699 119.145 98.6165 119.145C99.534 119.328 100.268 120.244 100.268 121.16L99.3505 128.305C99.167 130.32 98.2495 132.152 96.965 133.618L86.8728 145.893C85.9553 147.175 84.4874 147.908 83.0194 148.091C83.0194 148.641 82.6524 148.641 82.2854 148.641Z" fill="#333E63"/>
<path d="M112.746 143.878C109.993 143.878 107.424 141.862 106.874 139.114L104.121 125.74C104.121 125.557 103.938 125.557 103.938 125.374L89.9922 119.878C85.7718 118.229 83.5699 113.466 85.0379 109.252L92.0107 88.9159C92.7446 86.7174 94.2126 85.0685 96.4145 83.9693C98.433 83.0533 100.818 82.8701 103.02 83.7861C104.305 84.3357 105.222 84.8853 106.14 85.8014C106.323 85.9846 106.323 85.9846 106.507 86.1678L112.379 94.412H122.104C125.223 94.412 127.792 96.9769 127.792 100.091C127.792 103.206 125.223 105.771 122.104 105.771H107.424C106.874 105.771 106.323 105.588 106.14 105.221L104.855 103.756L102.286 110.901L111.094 114.565C113.113 115.298 114.397 117.13 114.948 119.145L118.801 137.099C119.168 138.748 118.801 140.58 117.7 141.862C116.599 143.328 115.131 144.061 113.296 144.244C113.113 143.878 112.929 143.878 112.746 143.878ZM100.084 86.9006C99.3505 86.9006 98.8 87.0838 98.066 87.267C96.9651 87.8166 96.0476 88.7327 95.6806 90.0151L88.7078 110.351C87.7903 112.733 89.0748 115.481 91.4602 116.397L105.406 121.893C106.69 122.443 107.608 123.542 107.975 124.824L110.727 138.198C110.911 139.298 112.012 140.214 113.296 140.03C114.03 140.03 114.581 139.664 114.948 139.114C115.315 138.565 115.498 137.832 115.315 137.282L111.461 119.328C111.278 118.412 110.727 117.679 109.81 117.496L99.3505 113.282C98.433 112.916 98.066 111.817 98.2495 110.901L102.103 100.275L98.6165 96.4273C97.8825 95.6945 98.066 94.5953 98.8 93.8624C99.534 93.1296 100.635 93.3128 101.369 94.0456L105.406 98.6258L108.158 101.74H121.92C123.021 101.74 123.939 100.824 123.939 99.725C123.939 98.6258 123.021 97.7098 121.92 97.7098H111.278C110.727 97.7098 110.177 97.3433 109.81 96.9769L103.571 88.183C103.02 87.6334 102.47 87.267 101.736 87.0838C101.185 87.0838 100.635 86.9006 100.084 86.9006Z" fill="#333E63"/>
<path d="M104.305 80.855C99.7175 80.855 95.8641 77.1909 95.8641 72.4275C95.8641 67.6641 99.534 64 104.305 64C108.892 64 112.746 67.6641 112.746 72.4275C112.746 77.1909 108.892 80.855 104.305 80.855ZM104.305 67.8473C101.736 67.8473 99.534 69.8626 99.534 72.6107C99.534 75.1756 101.552 77.3741 104.305 77.3741C106.874 77.3741 109.076 75.3588 109.076 72.6107C108.892 69.8626 106.874 67.8473 104.305 67.8473Z" fill="#333E63"/>
<path d="M153.482 160H72.3767C71.4592 160 70.5418 159.267 70.5418 158.168V146.992C70.5418 146.076 71.2758 145.16 72.3767 145.16H98.066V142.229C98.066 141.313 98.8 140.397 99.901 140.397H121.92V136.55C121.92 135.633 122.654 134.717 123.755 134.717H140.453V122.076C140.453 121.16 141.187 120.244 142.288 120.244H153.665C154.766 120.244 155.5 120.977 155.5 122.076V158.168C155.317 159.084 154.583 160 153.482 160ZM74.2117 156.336H151.83V123.725H144.123V136.366C144.123 137.282 143.389 138.198 142.288 138.198H125.59V142.046C125.59 142.962 124.856 143.878 123.755 143.878H101.736V146.809C101.736 147.725 101.002 148.641 99.901 148.641H74.2117V156.336Z" fill="#333E63"/>
<path d="M89.2583 104.672C88.7078 104.672 88.1573 104.489 87.7903 103.939L83.2029 98.443C82.2855 97.3437 81.9185 95.8781 82.2855 94.4124C82.6525 92.9468 83.7534 91.8475 85.0379 91.2979L92.7447 88.5498C93.6621 88.1834 94.7631 88.733 95.1301 89.6491C95.4971 90.5651 94.9466 91.6643 94.0291 92.0308L86.3223 94.7788C85.9553 94.9621 85.7719 95.1453 85.7719 95.3285C85.7719 95.5117 85.7719 95.6949 85.9554 96.0613L90.5428 101.557C91.2767 102.29 91.0932 103.39 90.3592 104.122C90.1757 104.672 89.6253 104.672 89.2583 104.672Z" fill="#333E63"/>
<path d="M78.432 123.176H67.2388C66.3214 123.176 65.4039 122.443 65.4039 121.344C65.4039 120.244 66.1379 119.511 67.2388 119.511H78.432C79.3495 119.511 80.267 120.244 80.267 121.344C80.267 122.443 79.533 123.176 78.432 123.176Z" fill="#333E63"/>
<path d="M78.432 114.015H65.5874C64.6699 114.015 63.7524 113.282 63.7524 112.183C63.7524 111.084 64.4864 110.351 65.5874 110.351H78.432C79.3495 110.351 80.267 111.084 80.267 112.183C80.267 113.282 79.533 114.015 78.432 114.015Z" fill="#333E63"/>
<path d="M78.432 104.672H62.835C61.9175 104.672 61 103.939 61 102.84C61 101.74 61.734 101.008 62.835 101.008H78.432C79.3495 101.008 80.267 101.74 80.267 102.84C80.267 103.939 79.533 104.672 78.432 104.672Z" fill="#333E63"/>
<path d="M147.61 123.725C146.692 123.725 145.775 122.993 145.775 121.893V80.1223C145.775 79.2063 146.509 78.2903 147.61 78.2903C148.527 78.2903 149.445 79.0231 149.445 80.1223V121.893C149.261 122.993 148.527 123.725 147.61 123.725Z" fill="#333E63"/>
<path d="M147.61 100.091C147.243 100.091 146.876 100.091 146.692 99.9083L132.93 91.4808C132.38 91.1144 132.013 90.5647 132.013 90.0151C132.013 89.4655 132.38 88.7327 132.93 88.5495L146.692 80.122C147.243 79.7556 147.977 79.7556 148.527 80.122C149.078 80.4884 149.445 81.038 149.445 81.7708V98.809C149.445 99.5418 149.078 100.091 148.527 100.458C148.16 99.9083 147.793 100.091 147.61 100.091ZM137.15 89.6487L145.591 94.9617V84.5189L137.15 89.6487Z" fill="#333E63"/>
<defs>
<filter id="filter0_ddd_1246_764" x="0" y="0" width="224" height="235" filterUnits="userSpaceOnUse" color-interpolation-filters="sRGB">
<feFlood flood-opacity="0" result="BackgroundImageFix"/>
<feColorMatrix in="SourceAlpha" type="matrix" values="0 0 0 0 0 0 0 0 0 0 0 0 0 0 0 0 0 0 127 0" result="hardAlpha"/>
<feMorphology radius="6" operator="erode" in="SourceAlpha" result="effect1_dropShadow_1246_764"/>
<feOffset dx="4"/>
<feGaussianBlur stdDeviation="18.5"/>
<feComposite in2="hardAlpha" operator="out"/>
<feColorMatrix type="matrix" values="0 0 0 0 0.342118 0 0 0 0 0.41091 0 0 0 0 0.491667 0 0 0 0.12 0"/>
<feBlend mode="normal" in2="BackgroundImageFix" result="effect1_dropShadow_1246_764"/>
<feColorMatrix in="SourceAlpha" type="matrix" values="0 0 0 0 0 0 0 0 0 0 0 0 0 0 0 0 0 0 127 0" result="hardAlpha"/>
<feOffset dy="4"/>
<feGaussianBlur stdDeviation="5"/>
<feComposite in2="hardAlpha" operator="out"/>
<feColorMatrix type="matrix" values="0 0 0 0 0.342118 0 0 0 0 0.41091 0 0 0 0 0.491667 0 0 0 0.14 0"/>
<feBlend mode="normal" in2="effect1_dropShadow_1246_764" result="effect2_dropShadow_1246_764"/>
<feColorMatrix in="SourceAlpha" type="matrix" values="0 0 0 0 0 0 0 0 0 0 0 0 0 0 0 0 0 0 127 0" result="hardAlpha"/>
<feOffset dx="6" dy="17"/>
<feGaussianBlur stdDeviation="12.5"/>
<feComposite in2="hardAlpha" operator="out"/>
<feColorMatrix type="matrix" values="0 0 0 0 0.342118 0 0 0 0 0.41091 0 0 0 0 0.491667 0 0 0 0.07 0"/>
<feBlend mode="normal" in2="effect2_dropShadow_1246_764" result="effect3_dropShadow_1246_764"/>
<feBlend mode="normal" in="SourceGraphic" in2="effect3_dropShadow_1246_764" result="shape"/>
</filter>
</defs>
</svg>
