<svg width="147" height="147" viewBox="0 0 147 147" fill="none" xmlns="http://www.w3.org/2000/svg">
<path d="M146 73.5C146 113.541 113.541 146 73.5 146C33.4593 146 1 113.541 1 73.5C1 33.4593 33.4593 1 73.5 1C113.541 1 146 33.4593 146 73.5Z" fill="white" stroke="#15316A" stroke-width="2"/>
<path d="M98.5 115H86.3125C85.5312 115 84.75 114.311 84.75 113.278V111.211C84.75 107.94 87.25 105.184 90.2187 105.184H90.5313V68.8505C90.5313 67.9895 91.1563 67.1285 92.0938 67.1285C93.0313 67.1285 93.6563 67.8173 93.6563 68.8505V106.906C93.6563 107.767 93.0313 108.628 92.0938 108.628H90.2187C88.9687 108.628 87.875 109.834 87.875 111.211V111.556H96.9375V84.6928C96.9375 83.8318 97.5625 82.9708 98.5 82.9708C99.125 82.9708 100.063 82.1098 100.063 80.9044V58.6908C100.063 56.9688 98.8125 55.5912 97.25 55.5912H93.6563C93.6563 55.5912 93.5 55.5912 93.5 55.7634V59.8962C93.5 60.7572 92.875 61.6182 91.9375 61.6182C91 61.6182 90.375 60.9294 90.375 59.8962V55.7634C90.375 53.8692 91.7813 52.1472 93.6563 52.1472H97.25C100.531 52.1472 103.188 55.0746 103.188 58.6908V80.9044C103.188 83.143 101.937 85.2094 100.219 86.0704V113.45C100.062 114.139 99.2813 115 98.5 115Z" fill="#333E63"/>
<path d="M96 49.9087C91.4688 49.9087 87.875 45.9481 87.875 40.9543C87.875 35.9606 91.4688 32 96 32C100.531 32 104.125 35.9606 104.125 40.9543C104.125 45.9481 100.531 49.9087 96 49.9087ZM96 35.2718C93.1875 35.2718 91 37.8548 91 40.7822C91 43.8817 93.3438 46.2925 96 46.2925C98.8125 46.2925 101 43.7095 101 40.7822C101 37.8548 98.8125 35.2718 96 35.2718Z" fill="#333E63"/>
<path d="M51 49.9087C46.4687 49.9087 42.875 45.9481 42.875 40.9543C42.875 35.9606 46.4687 32 51 32C55.5312 32 59.125 35.9606 59.125 40.9543C59.125 45.9481 55.5312 49.9087 51 49.9087ZM51 35.2718C48.1875 35.2718 46 37.8548 46 40.7822C46 43.8817 48.3437 46.2925 51 46.2925C53.8125 46.2925 56 43.7095 56 40.7822C56.1563 37.8548 53.8125 35.2718 51 35.2718Z" fill="#333E63"/>
<path d="M86.1562 74.8774H79.5938C78.8125 74.8774 78.0313 74.1886 78.0313 73.1554C78.0313 72.2945 78.6563 71.4335 79.5938 71.4335H86.1562C86.4687 71.4335 86.9375 71.2612 87.0937 71.089L93.9687 64.3733C94.5937 63.6845 95.5313 63.8567 96.1563 64.5455C96.7813 65.2343 96.625 66.2675 96 66.9563L89.125 73.672C88.5 74.533 87.4062 74.8774 86.1562 74.8774Z" fill="#333E63"/>
<path d="M85.0625 68.3338H79.5938C78.8125 68.3338 78.0313 67.645 78.0313 66.6118C78.0313 65.7508 78.6563 64.8898 79.5938 64.8898H84.4375L91.625 57.8297C92.25 57.1409 93.1875 56.7965 94.125 56.6243C94.9062 56.4521 95.6875 57.1409 95.8438 58.1741C96 59.035 95.375 59.8961 94.4375 60.0682C94.125 60.0682 93.8125 60.2404 93.6563 60.4126L86 67.8172C85.8438 68.1616 85.5313 68.3338 85.0625 68.3338Z" fill="#333E63"/>
<path d="M60.8438 115H48.6562C47.7187 115 47.0937 114.311 47.0937 113.278V85.8985C45.375 85.0375 44.125 83.1433 44.125 80.7325V58.5189C44.125 54.9027 46.7813 51.9753 50.0625 51.9753H53.6563C55.375 51.9753 56.9375 53.5251 56.9375 55.5915V59.7243C56.9375 60.5853 56.3125 61.4463 55.375 61.4463C54.5938 61.4463 53.8125 60.7575 53.8125 59.7243V55.5915C53.8125 55.5915 53.8125 55.4193 53.6563 55.4193H50.0625C48.5 55.4193 47.25 56.7969 47.25 58.5189V80.7325C47.25 81.9379 48.1875 82.799 48.8125 82.799C49.5937 82.799 50.375 83.4878 50.375 84.5209V111.384H59.4375V111.04C59.4375 109.662 58.3438 108.457 57.0938 108.457H55.2188C54.4375 108.457 53.6563 107.768 53.6563 106.735V68.6786C53.6563 67.8176 54.2813 66.9566 55.2188 66.9566C56 66.9566 56.7813 67.6454 56.7813 68.6786V105.013H57.0938C60.0625 105.013 62.5625 107.768 62.5625 111.04V113.106C62.4063 114.139 61.625 115 60.8438 115Z" fill="#333E63"/>
<path d="M72.4063 74.8776H60.8438C59.75 74.8776 58.6563 74.361 57.875 73.6722L51 66.9564C50.375 66.2676 50.2188 65.2345 50.8438 64.5457C51.4688 63.8569 52.4063 63.6847 53.0313 64.3735L59.9063 71.0892C60.2188 71.4336 60.5313 71.4336 60.8438 71.4336H72.4063C73.1875 71.4336 73.9688 70.7448 73.9688 69.8838C73.9688 69.0228 73.3438 68.1618 72.4063 68.1618H61.9375C61.625 68.1618 61.1563 67.9896 60.8438 67.8174L53.1875 60.4129C53.0313 60.2407 52.7188 60.0685 52.4063 60.0685C51.625 59.8963 51 59.0353 51 58.1743C51.1563 57.3133 51.9375 56.6245 52.7188 56.6245C53.6563 56.7967 54.4375 57.1411 55.2188 57.8299L62.4063 64.8901H72.25C74.75 64.8901 76.7813 67.1286 76.7813 69.8838C76.7813 72.639 74.9063 74.8776 72.4063 74.8776Z" fill="#333E63"/>
<path d="M103.5 115H43.5C42.7188 115 41.9375 114.311 41.9375 113.278C41.9375 112.417 42.5625 111.556 43.5 111.556H103.5C104.281 111.556 105.063 112.244 105.063 113.278C105.063 114.139 104.438 115 103.5 115Z" fill="#333E63"/>
<path d="M114.438 68.3341H108.188C107.25 68.3341 106.625 67.6453 106.625 66.6121C106.625 65.7511 107.25 64.8901 108.188 64.8901H114.438C115.375 64.8901 116 65.5789 116 66.6121C116 67.4731 115.219 68.3341 114.438 68.3341Z" fill="#333E63"/>
<path d="M114.438 78.1493H108.188C107.25 78.1493 106.625 77.4605 106.625 76.4273C106.625 75.3941 107.25 74.7053 108.188 74.7053H114.438C115.375 74.7053 116 75.3941 116 76.4273C116 77.4605 115.219 78.1493 114.438 78.1493Z" fill="#333E63"/>
<path d="M114.438 87.9645H108.188C107.25 87.9645 106.625 87.2757 106.625 86.2425C106.625 85.2093 107.25 84.5205 108.188 84.5205H114.438C115.375 84.5205 116 85.2093 116 86.2425C116 87.2757 115.219 87.9645 114.438 87.9645Z" fill="#333E63"/>
<path d="M38.8125 68.3341H32.5625C31.7813 68.3341 31 67.6453 31 66.6121C31 65.7511 31.625 64.8901 32.5625 64.8901H38.8125C39.5938 64.8901 40.375 65.5789 40.375 66.6121C40.375 67.4731 39.75 68.3341 38.8125 68.3341Z" fill="#333E63"/>
<path d="M38.8125 78.1493H32.5625C31.7813 78.1493 31 77.4605 31 76.4273C31 75.3941 31.625 74.7053 32.5625 74.7053H38.8125C39.5938 74.7053 40.375 75.3941 40.375 76.4273C40.375 77.4605 39.75 78.1493 38.8125 78.1493Z" fill="#333E63"/>
<path d="M38.8125 87.9645H32.5625C31.7813 87.9645 31 87.2757 31 86.2425C31 85.2093 31.625 84.5205 32.5625 84.5205H38.8125C39.5938 84.5205 40.375 85.2093 40.375 86.2425C40.375 87.2757 39.75 87.9645 38.8125 87.9645Z" fill="#333E63"/>
</svg>
