<svg width="161" height="154" viewBox="0 0 161 154" fill="none" xmlns="http://www.w3.org/2000/svg">
<g filter="url(#filter0_d_1223_763)">
<ellipse cx="80.5" cy="64" rx="64.5" ry="61" fill="white"/>
</g>
<path d="M109.35 59.7188L84.2208 34.25C83.45 33.4688 82.3708 33 81.2917 33C80.2125 33 79.1333 33.4688 78.3625 34.25L72.9667 39.7188L79.2875 46.125C79.9042 45.8125 80.5208 45.6563 81.2917 45.6563C83.9125 45.6563 85.9167 47.6875 85.9167 50.3438C85.9167 51.125 85.7625 51.75 85.4542 52.375L91.6208 58.625C92.2375 58.3125 92.8542 58.1562 93.625 58.1562C96.2458 58.1562 98.25 60.1875 98.25 62.8438C98.25 65.5 96.2458 67.5312 93.625 67.5312C91.0042 67.5312 89 65.5 89 62.8438C89 62.0625 89.1542 61.4375 89.4625 60.8125L83.2958 54.5625C83.1417 54.5625 82.9875 54.7188 82.8333 54.7188V70.9688C84.6833 71.5938 85.9167 73.3125 85.9167 75.3437C85.9167 78 83.9125 80.0312 81.2917 80.0312C78.6708 80.0312 76.6667 78 76.6667 75.3437C76.6667 73.3125 77.9 71.5938 79.75 70.9688V54.5625C77.9 53.9375 76.6667 52.2188 76.6667 50.1875C76.6667 49.4062 76.8208 48.7812 77.1292 48.1562L70.8083 41.75L53.2333 59.7188C52.4625 60.5 52 61.5938 52 62.6875C52 63.7812 52.4625 64.875 53.2333 65.6562L78.3625 91.125C79.1333 91.9062 80.2125 92.375 81.2917 92.375C82.3708 92.375 83.45 91.9062 84.2208 91.125L109.35 65.6562C110.121 64.875 110.583 63.7812 110.583 62.6875C110.583 61.5938 110.121 60.5 109.35 59.7188Z" fill="#F4511E"/>
<defs>
<filter id="filter0_d_1223_763" x="0" y="0" width="161" height="154" filterUnits="userSpaceOnUse" color-interpolation-filters="sRGB">
<feFlood flood-opacity="0" result="BackgroundImageFix"/>
<feColorMatrix in="SourceAlpha" type="matrix" values="0 0 0 0 0 0 0 0 0 0 0 0 0 0 0 0 0 0 127 0" result="hardAlpha"/>
<feOffset dy="13"/>
<feGaussianBlur stdDeviation="8"/>
<feComposite in2="hardAlpha" operator="out"/>
<feColorMatrix type="matrix" values="0 0 0 0 0.179861 0 0 0 0 0.336248 0 0 0 0 0.616667 0 0 0 0.35 0"/>
<feBlend mode="normal" in2="BackgroundImageFix" result="effect1_dropShadow_1223_763"/>
<feBlend mode="normal" in="SourceGraphic" in2="effect1_dropShadow_1223_763" result="shape"/>
</filter>
</defs>
</svg>
