<svg width="224" height="235" viewBox="0 0 224 235" fill="none" xmlns="http://www.w3.org/2000/svg">
<g filter="url(#filter0_ddd_1239_768)">
<circle cx="108" cy="112" r="81" fill="white"/>
<circle cx="108" cy="112" r="80" stroke="#15316A" stroke-width="2"/>
</g>
<path d="M115.675 157H78.9559C78.2394 157 77.5229 156.473 77.3438 155.77C77.1647 155.067 77.3438 154.189 77.8812 153.838C77.8812 153.838 80.747 151.554 81.4635 147.513C83.2547 137.675 81.1053 127.134 75.7318 117.647C72.5076 112.025 71.0747 105.7 71.4329 99.1998C71.4329 97.97 71.612 96.3889 71.9703 94.8077C73.7615 86.5506 77.7021 79.8746 83.4338 75.1311C91.8523 67.928 103.495 65.2927 114.6 68.1037C125.706 70.9146 134.303 78.4691 138.244 88.6588C139.856 92.6995 140.572 96.9159 140.572 101.132C140.572 103.416 141.11 105.524 142.184 107.457L146.304 115.363C147.2 116.593 147.2 118.174 146.483 119.579C145.767 120.985 144.334 121.863 142.722 121.863H138.244V132.228C138.244 138.026 133.408 142.77 127.497 142.77H117.466V155.419C117.287 156.122 116.571 157 115.675 157ZM82.8965 153.486H113.884V140.837C113.884 139.959 114.6 139.08 115.675 139.08H127.497C131.437 139.08 134.661 135.918 134.661 132.053V119.931C134.661 119.052 135.378 118.174 136.453 118.174H142.722C143.08 118.174 143.259 117.998 143.438 117.822C143.438 117.647 143.617 117.471 143.438 117.12V116.944L139.139 109.038C137.886 106.579 137.169 103.768 137.169 101.132C137.169 97.2673 136.453 93.4022 135.02 89.8886C131.437 80.753 123.735 73.9013 113.884 71.4417C104.032 68.9821 93.6435 71.266 85.9414 77.7663C80.747 82.1585 77.3438 88.1317 75.5526 95.6861C75.1944 97.0916 75.1944 98.3214 75.0153 99.5512C74.6571 105.349 76.09 111.146 78.9559 116.066C84.8668 126.255 87.0162 137.675 85.0459 148.216C84.5085 150.324 83.792 152.081 82.8965 153.486Z" fill="#333E63"/>
<path d="M121.407 142.594H106.54C105.465 142.594 104.749 141.891 104.749 140.837C104.749 139.959 105.465 139.08 106.54 139.08H121.407C122.302 139.08 123.198 139.783 123.198 140.837C123.198 141.715 122.481 142.594 121.407 142.594Z" fill="#333E63"/>
<path d="M136.453 157H71.7912C70.8956 157 70 156.297 70 155.243C70 154.365 70.7165 153.486 71.7912 153.486H136.453C137.348 153.486 138.244 154.189 138.244 155.243C138.244 156.122 137.348 157 136.453 157Z" fill="#333E63"/>
<path d="M95.7929 109.214C92.7479 109.214 90.0612 107.808 88.4491 105.524C87.7326 105.876 86.837 105.876 85.9414 105.876C82.0009 105.876 78.7767 102.713 78.7767 98.8484C78.7767 95.8618 80.7471 93.2265 83.4338 92.1724C83.0756 91.4697 83.0756 90.5912 83.0756 89.8885C83.0756 86.3748 85.5832 83.5639 88.9864 82.8611C90.2403 78.6447 94.1808 75.8337 98.8379 75.8337C101.525 75.8337 104.032 76.8878 105.824 78.469C107.256 77.0635 109.406 76.3608 111.376 76.3608C114.958 76.3608 118.003 78.6447 119.257 81.807C123.019 81.807 126.243 84.618 126.601 88.1316C130.004 88.6587 132.691 91.6453 132.691 95.159C132.691 99.0241 129.467 102.186 125.526 102.186C124.81 102.186 124.093 102.011 123.377 101.835C122.123 104.295 119.795 105.876 116.929 105.876C115.496 105.876 114.063 105.349 112.809 104.646C111.555 106.403 109.406 107.633 106.898 107.633C105.286 107.633 103.674 107.106 102.599 106.227C100.808 107.984 98.4797 109.214 95.7929 109.214ZM89.1656 101.308C89.3447 101.308 89.5238 101.308 89.7029 101.308C90.2403 101.484 90.5985 101.835 90.7776 102.362C91.6732 104.295 93.4644 105.7 95.7929 105.7C97.9423 105.7 99.9126 104.47 100.629 102.538C100.808 102.011 101.525 101.484 102.062 101.484C102.778 101.484 103.316 101.835 103.674 102.362C104.391 103.416 105.465 104.119 106.719 104.119C108.51 104.119 109.943 102.889 110.301 101.308C110.481 100.605 111.018 100.078 111.734 99.9025C112.451 99.7268 113.167 100.078 113.526 100.781C114.242 101.835 115.317 102.538 116.571 102.538C118.362 102.538 119.974 101.132 120.153 99.3755C120.153 98.6727 120.69 98.1457 121.228 97.97C121.765 97.7943 122.481 97.7943 123.019 98.1457C123.735 98.6727 124.452 98.8484 125.168 98.8484C127.138 98.8484 128.751 97.2672 128.751 95.3347C128.751 93.4022 127.138 91.821 125.168 91.821C124.989 91.821 124.81 91.821 124.81 91.821C124.273 91.821 123.556 91.6453 123.198 91.294C122.84 90.9426 122.661 90.2399 122.661 89.7128C122.661 89.5371 122.661 89.1858 122.661 89.0101C122.661 87.0775 121.048 85.4964 119.078 85.4964C118.72 85.4964 118.541 85.4964 118.183 85.6721C117.645 85.8478 117.108 85.6721 116.75 85.4964C116.391 85.145 116.033 84.7936 116.033 84.2666C115.675 81.807 113.705 80.0502 111.376 80.0502C109.764 80.0502 108.152 80.9286 107.256 82.3341C106.898 82.8611 106.361 83.2125 105.824 83.2125C105.286 83.2125 104.57 82.8611 104.391 82.5098C103.137 80.7529 100.987 79.6988 98.8379 79.6988C95.6138 79.6988 92.7479 81.9827 92.2106 85.145C92.0314 86.0234 91.315 86.7262 90.4194 86.5505H90.2403C88.27 86.5505 86.6579 88.1317 86.6579 90.0642C86.6579 90.9426 87.0162 91.821 87.7326 92.5238C88.27 93.0508 88.4491 93.7536 88.0909 94.4563C87.7326 95.159 87.0161 95.5104 86.2997 95.5104C86.1206 95.5104 86.1206 95.5104 85.9414 95.5104C83.9712 95.5104 82.18 97.0915 82.18 99.0241C82.18 100.957 83.7921 102.538 85.7623 102.538C86.4788 102.538 87.1953 102.362 87.9118 101.835C88.4491 101.484 88.8073 101.308 89.1656 101.308Z" fill="#333E63"/>
<path d="M89.1656 104.822C89.1656 104.822 88.9865 104.822 89.1656 104.822C88.0909 104.646 87.3744 103.943 87.3744 102.889C87.3744 102.362 87.7326 99.1999 89.7029 97.6187C90.4194 97.0917 91.6732 97.0917 92.2106 97.9701C92.7479 98.8485 92.7479 99.9026 91.8523 100.43C91.315 100.781 90.9567 102.362 90.7776 103.241C90.7776 104.119 90.0612 104.822 89.1656 104.822Z" fill="#333E63"/>
<path d="M105.107 87.429C104.391 87.429 103.674 86.902 103.495 86.1992C102.42 83.0369 104.391 80.226 104.57 80.0503C105.107 79.3476 106.182 78.9962 107.077 79.6989C107.794 80.226 108.152 81.2801 107.436 82.1585C107.436 82.1585 106.361 83.7397 106.898 85.1451C107.256 86.0236 106.719 87.0777 105.823 87.429C105.465 87.2533 105.286 87.429 105.107 87.429Z" fill="#333E63"/>
<path d="M112.272 103.241C111.197 103.241 110.481 102.362 110.481 101.484C110.481 101.484 110.481 99.3755 109.227 98.4971C108.331 97.97 108.152 96.9159 108.689 96.0375C109.227 95.159 110.301 94.9833 111.197 95.5104C114.242 97.4429 114.063 101.308 114.063 101.484C114.063 102.538 113.167 103.241 112.272 103.241Z" fill="#333E63"/>
<path d="M98.1214 94.4564C97.405 94.4564 96.6885 94.2807 95.972 93.9293C94.8973 93.4023 94.1809 92.5238 93.8226 91.294C93.4644 90.4156 94.0017 89.3615 94.8973 89.0101C95.7929 88.6588 96.8676 89.1858 97.2258 90.0643C97.405 90.4156 97.5841 90.5913 97.5841 90.5913C97.9423 90.767 98.8379 90.5913 99.017 90.5913C99.9126 90.24 100.987 90.767 101.346 91.6454C101.704 92.5238 101.166 93.5779 100.271 93.9293C100.092 94.105 99.1961 94.4564 98.1214 94.4564Z" fill="#333E63"/>
<path d="M115.675 93.5779C114.779 93.5779 114.063 93.0509 113.884 92.1724C113.884 91.8211 113.705 91.6454 113.526 91.6454C113.167 91.294 112.451 91.4697 112.093 91.4697C111.197 91.6454 110.122 91.1183 109.943 90.0642C109.764 89.1858 110.301 88.1317 111.376 87.956C111.555 87.956 113.884 87.429 115.496 88.6588C116.391 89.3615 117.108 90.2399 117.287 91.4697C117.466 92.3481 116.75 93.4022 115.854 93.5779C115.854 93.5779 115.854 93.5779 115.675 93.5779Z" fill="#333E63"/>
<defs>
<filter id="filter0_ddd_1239_768" x="0" y="0" width="224" height="235" filterUnits="userSpaceOnUse" color-interpolation-filters="sRGB">
<feFlood flood-opacity="0" result="BackgroundImageFix"/>
<feColorMatrix in="SourceAlpha" type="matrix" values="0 0 0 0 0 0 0 0 0 0 0 0 0 0 0 0 0 0 127 0" result="hardAlpha"/>
<feMorphology radius="6" operator="erode" in="SourceAlpha" result="effect1_dropShadow_1239_768"/>
<feOffset dx="4"/>
<feGaussianBlur stdDeviation="18.5"/>
<feComposite in2="hardAlpha" operator="out"/>
<feColorMatrix type="matrix" values="0 0 0 0 0.342118 0 0 0 0 0.41091 0 0 0 0 0.491667 0 0 0 0.12 0"/>
<feBlend mode="normal" in2="BackgroundImageFix" result="effect1_dropShadow_1239_768"/>
<feColorMatrix in="SourceAlpha" type="matrix" values="0 0 0 0 0 0 0 0 0 0 0 0 0 0 0 0 0 0 127 0" result="hardAlpha"/>
<feOffset dy="4"/>
<feGaussianBlur stdDeviation="5"/>
<feComposite in2="hardAlpha" operator="out"/>
<feColorMatrix type="matrix" values="0 0 0 0 0.342118 0 0 0 0 0.41091 0 0 0 0 0.491667 0 0 0 0.14 0"/>
<feBlend mode="normal" in2="effect1_dropShadow_1239_768" result="effect2_dropShadow_1239_768"/>
<feColorMatrix in="SourceAlpha" type="matrix" values="0 0 0 0 0 0 0 0 0 0 0 0 0 0 0 0 0 0 127 0" result="hardAlpha"/>
<feOffset dx="6" dy="17"/>
<feGaussianBlur stdDeviation="12.5"/>
<feComposite in2="hardAlpha" operator="out"/>
<feColorMatrix type="matrix" values="0 0 0 0 0.342118 0 0 0 0 0.41091 0 0 0 0 0.491667 0 0 0 0.07 0"/>
<feBlend mode="normal" in2="effect2_dropShadow_1239_768" result="effect3_dropShadow_1239_768"/>
<feBlend mode="normal" in="SourceGraphic" in2="effect3_dropShadow_1239_768" result="shape"/>
</filter>
</defs>
</svg>
