<svg width="147" height="147" viewBox="0 0 147 147" fill="none" xmlns="http://www.w3.org/2000/svg">
<path d="M146 73.5C146 113.541 113.541 146 73.5 146C33.4593 146 1 113.541 1 73.5C1 33.4593 33.4593 1 73.5 1C113.541 1 146 33.4593 146 73.5Z" fill="white" stroke="#15316A" stroke-width="2"/>
<path d="M63.7294 77.0615C61.0969 77.0615 59.1225 74.957 59.1225 72.5287V60.7111C59.1225 55.5308 63.4004 51.4836 68.5009 51.4836C69.3236 51.4836 70.1463 52.1312 70.1463 53.1025C70.1463 53.9119 69.4881 54.7213 68.5009 54.7213C65.0457 54.7213 62.4132 57.4734 62.4132 60.7111V72.5287C62.4132 73.3381 63.0713 73.8238 63.7294 73.8238C64.5521 73.8238 65.0457 73.1763 65.0457 72.5287V65.082C65.0457 64.2726 65.7038 63.4631 66.691 63.4631C67.5137 63.4631 68.3364 64.1107 68.3364 65.082V72.5287C68.3364 74.957 66.1974 77.0615 63.7294 77.0615Z" fill="#333E63"/>
<path d="M86.2706 77.0615C83.638 77.0615 81.6636 74.957 81.6636 72.5287V65.082C81.6636 64.2726 82.3218 63.4631 83.309 63.4631C84.1316 63.4631 84.9543 64.1107 84.9543 65.082V72.5287C84.9543 73.3381 85.6124 73.8238 86.2706 73.8238C87.0932 73.8238 87.5868 73.1763 87.5868 72.5287V60.7111C87.5868 57.3115 84.7898 54.7213 81.4991 54.7213C80.6764 54.7213 79.8537 54.0738 79.8537 53.1025C79.8537 52.2931 80.5119 51.4836 81.4991 51.4836C86.7642 51.4836 90.8775 55.6927 90.8775 60.7111V72.5287C91.042 74.957 88.9031 77.0615 86.2706 77.0615Z" fill="#333E63"/>
<path d="M75.0823 50.1885C70.4753 50.1885 66.8556 46.627 66.8556 42.0943C66.8556 37.5615 70.4753 34 75.0823 34C79.6892 34 83.309 37.5615 83.309 42.0943C83.309 46.627 79.5247 50.1885 75.0823 50.1885ZM75.0823 37.2377C72.2852 37.2377 70.1463 39.3422 70.1463 42.0943C70.1463 44.8463 72.2852 46.9508 75.0823 46.9508C77.8793 46.9508 80.0183 44.8463 80.0183 42.0943C80.0183 39.5041 77.7148 37.2377 75.0823 37.2377Z" fill="#333E63"/>
<path d="M86.2706 77.0613H63.5649C62.7422 77.0613 61.9196 76.4138 61.9196 75.4425C61.9196 74.633 62.5777 73.8236 63.5649 73.8236H86.2706C87.0932 73.8236 87.9159 74.4711 87.9159 75.4425C87.9159 76.4138 87.2578 77.0613 86.2706 77.0613Z" fill="#333E63"/>
<path d="M75.0823 58.9302C74.7532 58.9302 74.4241 58.7683 74.0951 58.6065L67.5137 54.2356C66.691 53.7499 66.5265 52.7786 67.0201 51.9692C67.5137 51.1597 68.5009 50.9979 69.3236 51.4835L74.9177 55.2069L80.5119 51.4835C81.3346 50.9979 82.3218 51.1597 82.8154 51.9692C83.309 52.7786 83.1444 53.7499 82.3218 54.2356L75.7404 58.6065C75.5759 58.7683 75.2468 58.9302 75.0823 58.9302Z" fill="#333E63"/>
<path d="M109.963 113H39.872C36.5813 113 34.1133 110.41 34.1133 107.334V63.6251C34.1133 60.3874 36.7459 57.9591 39.872 57.9591H54.5155C55.3382 57.9591 56.1609 58.6066 56.1609 59.578C56.1609 60.3874 55.5027 61.1968 54.5155 61.1968H39.872C38.3912 61.1968 37.2395 62.33 37.2395 63.787V107.496C37.2395 108.953 38.3912 110.086 39.872 110.086H109.963C111.444 110.086 112.596 108.953 112.596 107.496V63.787C112.596 62.33 111.444 61.1968 109.963 61.1968H95.3199C94.4973 61.1968 93.6746 60.5493 93.6746 59.578C93.6746 58.7685 94.3327 57.9591 95.3199 57.9591H109.963C113.254 57.9591 115.722 60.5493 115.722 63.6251V107.334C115.887 110.41 113.254 113 109.963 113Z" fill="#333E63"/>
<path d="M105.686 106.525H44.479C43.6563 106.525 42.8336 105.877 42.8336 104.906V66.0534C42.8336 65.244 43.4918 64.4346 44.479 64.4346H54.6801C55.5027 64.4346 56.3254 65.0821 56.3254 66.0534C56.3254 66.8628 55.6673 67.6723 54.6801 67.6723H46.1243V103.449H104.04V67.6723H95.4845C94.4972 67.6723 93.8391 67.0247 93.8391 66.0534C93.8391 65.244 94.4972 64.4346 95.4845 64.4346H105.686C106.673 64.4346 107.331 65.0821 107.331 66.0534V104.906C107.331 105.877 106.508 106.525 105.686 106.525Z" fill="#333E63"/>
<path d="M74.9177 98.2684C70.4753 98.2684 66.8556 94.707 66.8556 90.3361C66.8556 85.9652 70.4753 82.4037 74.9177 82.4037C79.3601 82.4037 82.9799 85.9652 82.9799 90.3361C82.9799 94.707 79.3601 98.2684 74.9177 98.2684ZM74.9177 85.6414C72.2852 85.6414 70.1463 87.7459 70.1463 90.3361C70.1463 92.9262 72.2852 95.0307 74.9177 95.0307C77.5503 95.0307 79.6892 92.9262 79.6892 90.3361C79.6892 87.7459 77.5503 85.6414 74.9177 85.6414Z" fill="#333E63"/>
<path d="M74.9177 93.5738C74.2596 93.5738 73.766 93.25 73.4369 92.7644L72.1207 90.498C71.6271 89.6886 71.9561 88.7172 72.7788 88.2316C73.6014 87.7459 74.5887 88.0697 75.0823 88.8791L75.2468 89.2029L80.5119 82.7275C81.0055 82.0799 82.1572 81.9181 82.8153 82.4037C83.4735 82.8894 83.638 84.0226 83.1444 84.6701L76.3985 93.0881C75.9049 93.4119 75.4113 93.5738 74.9177 93.5738Z" fill="#333E63"/>
<path d="M93.3455 98.5922C88.9031 98.5922 85.2834 95.0307 85.2834 90.6598C85.2834 86.2889 88.9031 82.7274 93.3455 82.7274C97.7879 82.7274 101.408 86.2889 101.408 90.6598C101.408 95.0307 97.7879 98.5922 93.3455 98.5922ZM93.3455 85.9651C90.713 85.9651 88.574 88.0696 88.574 90.6598C88.574 93.25 90.713 95.3545 93.3455 95.3545C95.9781 95.3545 98.117 93.25 98.117 90.6598C98.117 88.0696 95.9781 85.9651 93.3455 85.9651Z" fill="#333E63"/>
<path d="M93.3455 93.8974C93.3455 93.8974 93.181 93.8974 93.3455 93.8974C92.6874 93.8974 92.1938 93.5736 91.8647 93.088L90.5484 90.8216C90.0548 90.0122 90.3839 89.0408 91.2066 88.5552C92.0293 88.0695 93.0165 88.3933 93.5101 89.2027L93.6746 89.5265L98.9397 83.0511C99.4333 82.4036 100.585 82.2417 101.243 82.7273C101.901 83.213 102.066 84.3462 101.572 84.9937L94.8263 93.4117C94.3327 93.5736 93.8391 93.8974 93.3455 93.8974Z" fill="#333E63"/>
<path d="M56.6545 98.1066C52.2121 98.1066 48.5923 94.5451 48.5923 90.1742C48.5923 85.8033 52.2121 82.2418 56.6545 82.2418C61.0969 82.2418 64.7166 85.8033 64.7166 90.1742C64.7166 94.5451 61.0969 98.1066 56.6545 98.1066ZM56.6545 85.4795C54.0219 85.4795 51.883 87.584 51.883 90.1742C51.883 92.7644 54.0219 94.8689 56.6545 94.8689C59.287 94.8689 61.426 92.7644 61.426 90.1742C61.426 87.584 59.287 85.4795 56.6545 85.4795Z" fill="#333E63"/>
<path d="M56.6545 93.4119C56.6545 93.4119 56.49 93.4119 56.6545 93.4119C55.9964 93.4119 55.5028 93.0882 55.1737 92.6025L53.8574 90.3361C53.3638 89.5267 53.6929 88.5554 54.5156 88.0697C55.3382 87.5841 56.3254 87.9078 56.819 88.7173L56.9836 89.041L62.2486 82.5656C62.7422 81.9181 63.894 81.7562 64.5521 82.2419C65.2102 82.7275 65.3748 83.8607 64.8812 84.5082L58.1353 92.9263C57.6417 93.25 57.1481 93.4119 56.6545 93.4119Z" fill="#333E63"/>
<path d="M55.8318 52.455H45.9598C44.9726 52.455 44.3145 51.8074 44.3145 50.8361C44.3145 50.0267 44.9726 49.2173 45.9598 49.2173H55.8318C56.819 49.2173 57.4772 49.8648 57.4772 50.8361C57.4772 51.8074 56.819 52.455 55.8318 52.455Z" fill="#333E63"/>
<path d="M104.04 52.455H94.1682C93.3455 52.455 92.5228 51.8074 92.5228 50.8361C92.5228 50.0267 93.181 49.2173 94.1682 49.2173H104.04C104.863 49.2173 105.686 49.8648 105.686 50.8361C105.686 51.8074 104.863 52.455 104.04 52.455Z" fill="#333E63"/>
<path d="M118.355 113H31.6453C30.8227 113 30 112.353 30 111.381C30 110.572 30.6581 109.762 31.6453 109.762H118.355C119.177 109.762 120 110.41 120 111.381C120 112.353 119.177 113 118.355 113Z" fill="#333E63"/>
</svg>
